<mxfile host="app.diagrams.net" modified="2020-08-28T23:12:03.491Z" agent="5.0 (Macintosh; Intel Mac OS X 10_15_5) AppleWebKit/537.36 (KHTML, like Gecko) Chrome/85.0.4183.83 Safari/537.36" etag="FcJlLPPmlyW_-ZWzTUTp" version="13.6.5" type="github">
  <diagram id="cdOq6dn5EqWBhTI8-JfC" name="Updated 8/28 715pm">
    <mxGraphModel dx="786" dy="721" grid="1" gridSize="10" guides="1" tooltips="1" connect="1" arrows="1" fold="1" page="1" pageScale="1" pageWidth="850" pageHeight="1100" math="0" shadow="0">
      <root>
        <mxCell id="0" />
        <mxCell id="1" parent="0" />
        <mxCell id="T0C1m_C553ECl10Zw6SN-33" value="" style="group" parent="1" vertex="1" connectable="0">
          <mxGeometry x="80" y="280" width="210" height="320" as="geometry" />
        </mxCell>
        <mxCell id="T0C1m_C553ECl10Zw6SN-2" value="" style="rounded=1;whiteSpace=wrap;html=1;" parent="T0C1m_C553ECl10Zw6SN-33" vertex="1">
          <mxGeometry width="210" height="320" as="geometry" />
        </mxCell>
        <mxCell id="T0C1m_C553ECl10Zw6SN-6" value="" style="line;strokeWidth=2;direction=south;html=1;" parent="T0C1m_C553ECl10Zw6SN-33" vertex="1">
          <mxGeometry x="100" y="30" width="10" height="290" as="geometry" />
        </mxCell>
        <mxCell id="T0C1m_C553ECl10Zw6SN-14" value="&lt;b style=&quot;font-size: 20px;&quot;&gt;&lt;font style=&quot;font-size: 20px;&quot;&gt;User&lt;/font&gt;&lt;/b&gt;" style="text;html=1;strokeColor=none;fillColor=none;align=center;verticalAlign=middle;whiteSpace=wrap;rounded=0;fontSize=20;" parent="T0C1m_C553ECl10Zw6SN-33" vertex="1">
          <mxGeometry x="20" y="10" width="60" height="20" as="geometry" />
        </mxCell>
        <mxCell id="T0C1m_C553ECl10Zw6SN-15" value="_id" style="text;html=1;strokeColor=none;fillColor=none;align=center;verticalAlign=middle;whiteSpace=wrap;rounded=0;fontSize=17;" parent="T0C1m_C553ECl10Zw6SN-33" vertex="1">
          <mxGeometry x="30" y="50" width="40" height="20" as="geometry" />
        </mxCell>
        <mxCell id="T0C1m_C553ECl10Zw6SN-16" value="ObjectId" style="text;html=1;strokeColor=none;fillColor=none;align=center;verticalAlign=middle;whiteSpace=wrap;rounded=0;fontSize=17;" parent="T0C1m_C553ECl10Zw6SN-33" vertex="1">
          <mxGeometry x="130" y="50" width="40" height="20" as="geometry" />
        </mxCell>
        <mxCell id="T0C1m_C553ECl10Zw6SN-17" value="name" style="text;html=1;strokeColor=none;fillColor=none;align=center;verticalAlign=middle;whiteSpace=wrap;rounded=0;fontSize=17;" parent="T0C1m_C553ECl10Zw6SN-33" vertex="1">
          <mxGeometry x="30" y="170" width="40" height="20" as="geometry" />
        </mxCell>
        <mxCell id="T0C1m_C553ECl10Zw6SN-18" value="String" style="text;html=1;strokeColor=none;fillColor=none;align=center;verticalAlign=middle;whiteSpace=wrap;rounded=0;fontSize=17;" parent="T0C1m_C553ECl10Zw6SN-33" vertex="1">
          <mxGeometry x="130" y="90" width="40" height="20" as="geometry" />
        </mxCell>
        <mxCell id="T0C1m_C553ECl10Zw6SN-19" value="email" style="text;html=1;strokeColor=none;fillColor=none;align=center;verticalAlign=middle;whiteSpace=wrap;rounded=0;fontSize=17;" parent="T0C1m_C553ECl10Zw6SN-33" vertex="1">
          <mxGeometry x="30" y="250" width="40" height="20" as="geometry" />
        </mxCell>
        <mxCell id="T0C1m_C553ECl10Zw6SN-20" value="String" style="text;html=1;strokeColor=none;fillColor=none;align=center;verticalAlign=middle;whiteSpace=wrap;rounded=0;fontSize=17;" parent="T0C1m_C553ECl10Zw6SN-33" vertex="1">
          <mxGeometry x="130" y="125" width="40" height="20" as="geometry" />
        </mxCell>
        <mxCell id="T0C1m_C553ECl10Zw6SN-21" value="photo" style="text;html=1;strokeColor=none;fillColor=none;align=center;verticalAlign=middle;whiteSpace=wrap;rounded=0;fontSize=17;" parent="T0C1m_C553ECl10Zw6SN-33" vertex="1">
          <mxGeometry x="30" y="90" width="40" height="20" as="geometry" />
        </mxCell>
        <mxCell id="T0C1m_C553ECl10Zw6SN-22" value="String" style="text;html=1;strokeColor=none;fillColor=none;align=center;verticalAlign=middle;whiteSpace=wrap;rounded=0;fontSize=17;" parent="T0C1m_C553ECl10Zw6SN-33" vertex="1">
          <mxGeometry x="130" y="210" width="40" height="20" as="geometry" />
        </mxCell>
        <mxCell id="T0C1m_C553ECl10Zw6SN-23" value="googleId" style="text;html=1;strokeColor=none;fillColor=none;align=center;verticalAlign=middle;whiteSpace=wrap;rounded=0;fontSize=17;" parent="T0C1m_C553ECl10Zw6SN-33" vertex="1">
          <mxGeometry x="30" y="125" width="40" height="20" as="geometry" />
        </mxCell>
        <mxCell id="T0C1m_C553ECl10Zw6SN-24" value="String" style="text;html=1;strokeColor=none;fillColor=none;align=center;verticalAlign=middle;whiteSpace=wrap;rounded=0;fontSize=17;" parent="T0C1m_C553ECl10Zw6SN-33" vertex="1">
          <mxGeometry x="130" y="170" width="40" height="20" as="geometry" />
        </mxCell>
        <mxCell id="T0C1m_C553ECl10Zw6SN-25" value="bio" style="text;html=1;strokeColor=none;fillColor=none;align=center;verticalAlign=middle;whiteSpace=wrap;rounded=0;fontSize=17;" parent="T0C1m_C553ECl10Zw6SN-33" vertex="1">
          <mxGeometry x="30" y="210" width="40" height="20" as="geometry" />
        </mxCell>
        <mxCell id="T0C1m_C553ECl10Zw6SN-26" value="String" style="text;html=1;strokeColor=none;fillColor=none;align=center;verticalAlign=middle;whiteSpace=wrap;rounded=0;fontSize=17;" parent="T0C1m_C553ECl10Zw6SN-33" vertex="1">
          <mxGeometry x="130" y="250" width="40" height="20" as="geometry" />
        </mxCell>
        <mxCell id="T0C1m_C553ECl10Zw6SN-27" value="friends" style="text;html=1;strokeColor=none;fillColor=none;align=center;verticalAlign=middle;whiteSpace=wrap;rounded=0;fontSize=17;" parent="T0C1m_C553ECl10Zw6SN-33" vertex="1">
          <mxGeometry x="30" y="290" width="40" height="20" as="geometry" />
        </mxCell>
        <mxCell id="T0C1m_C553ECl10Zw6SN-28" value="ObjectId ref: user" style="text;html=1;strokeColor=none;fillColor=none;align=center;verticalAlign=middle;whiteSpace=wrap;rounded=0;fontSize=15;" parent="T0C1m_C553ECl10Zw6SN-33" vertex="1">
          <mxGeometry x="120" y="290" width="60" height="20" as="geometry" />
        </mxCell>
        <mxCell id="T0C1m_C553ECl10Zw6SN-64" value="" style="line;strokeWidth=2;html=1;fontSize=16;" parent="T0C1m_C553ECl10Zw6SN-33" vertex="1">
          <mxGeometry y="80" width="210" height="10" as="geometry" />
        </mxCell>
        <mxCell id="T0C1m_C553ECl10Zw6SN-76" value="" style="line;strokeWidth=2;html=1;fontSize=16;" parent="T0C1m_C553ECl10Zw6SN-33" vertex="1">
          <mxGeometry y="280" width="210" height="10" as="geometry" />
        </mxCell>
        <mxCell id="T0C1m_C553ECl10Zw6SN-75" value="" style="line;strokeWidth=2;html=1;fontSize=16;" parent="T0C1m_C553ECl10Zw6SN-33" vertex="1">
          <mxGeometry y="240" width="210" height="10" as="geometry" />
        </mxCell>
        <mxCell id="T0C1m_C553ECl10Zw6SN-66" value="" style="line;strokeWidth=2;html=1;fontSize=16;" parent="T0C1m_C553ECl10Zw6SN-33" vertex="1">
          <mxGeometry y="200" width="210" height="10" as="geometry" />
        </mxCell>
        <mxCell id="T0C1m_C553ECl10Zw6SN-65" value="" style="line;strokeWidth=2;html=1;fontSize=16;" parent="T0C1m_C553ECl10Zw6SN-33" vertex="1">
          <mxGeometry y="155" width="210" height="10" as="geometry" />
        </mxCell>
        <mxCell id="T0C1m_C553ECl10Zw6SN-78" value="" style="line;strokeWidth=2;html=1;fontSize=16;" parent="T0C1m_C553ECl10Zw6SN-33" vertex="1">
          <mxGeometry y="115" width="210" height="10" as="geometry" />
        </mxCell>
        <mxCell id="T0C1m_C553ECl10Zw6SN-77" value="" style="line;strokeWidth=2;html=1;fontSize=16;" parent="T0C1m_C553ECl10Zw6SN-33" vertex="1">
          <mxGeometry y="30" width="210" height="10" as="geometry" />
        </mxCell>
        <mxCell id="T0C1m_C553ECl10Zw6SN-82" value="" style="group" parent="1" vertex="1" connectable="0">
          <mxGeometry x="300" y="20" width="230" height="160" as="geometry" />
        </mxCell>
        <mxCell id="T0C1m_C553ECl10Zw6SN-34" value="" style="rounded=1;whiteSpace=wrap;html=1;" parent="T0C1m_C553ECl10Zw6SN-82" vertex="1">
          <mxGeometry width="230" height="160" as="geometry" />
        </mxCell>
        <mxCell id="T0C1m_C553ECl10Zw6SN-61" value="" style="line;strokeWidth=4;direction=south;html=1;perimeter=backbonePerimeter;points=[];outlineConnect=0;fontSize=16;" parent="T0C1m_C553ECl10Zw6SN-82" vertex="1">
          <mxGeometry x="110" y="40" width="10" height="120" as="geometry" />
        </mxCell>
        <mxCell id="T0C1m_C553ECl10Zw6SN-62" value="Reviews (Stretch Goal)" style="text;html=1;strokeColor=none;fillColor=none;align=center;verticalAlign=middle;whiteSpace=wrap;rounded=0;fontSize=16;" parent="T0C1m_C553ECl10Zw6SN-82" vertex="1">
          <mxGeometry x="20" y="10" width="190" height="20" as="geometry" />
        </mxCell>
        <mxCell id="T0C1m_C553ECl10Zw6SN-79" value="" style="line;strokeWidth=2;html=1;fontSize=16;" parent="T0C1m_C553ECl10Zw6SN-82" vertex="1">
          <mxGeometry y="80" width="230" height="10" as="geometry" />
        </mxCell>
        <mxCell id="T0C1m_C553ECl10Zw6SN-80" value="" style="line;strokeWidth=2;html=1;fontSize=16;" parent="T0C1m_C553ECl10Zw6SN-82" vertex="1">
          <mxGeometry y="120" width="230" height="10" as="geometry" />
        </mxCell>
        <mxCell id="T0C1m_C553ECl10Zw6SN-81" value="" style="line;strokeWidth=2;html=1;fontSize=16;" parent="T0C1m_C553ECl10Zw6SN-82" vertex="1">
          <mxGeometry y="40" width="230" height="10" as="geometry" />
        </mxCell>
        <mxCell id="YSIpcBdR14YAckAbnMgP-12" value="reviewer" style="text;html=1;strokeColor=none;fillColor=none;align=center;verticalAlign=middle;whiteSpace=wrap;rounded=0;fontSize=17;" vertex="1" parent="T0C1m_C553ECl10Zw6SN-82">
          <mxGeometry x="40" y="50" width="40" height="20" as="geometry" />
        </mxCell>
        <mxCell id="YSIpcBdR14YAckAbnMgP-15" value="String" style="text;html=1;strokeColor=none;fillColor=none;align=center;verticalAlign=middle;whiteSpace=wrap;rounded=0;fontSize=17;" vertex="1" parent="T0C1m_C553ECl10Zw6SN-82">
          <mxGeometry x="150" y="50" width="40" height="20" as="geometry" />
        </mxCell>
        <mxCell id="YSIpcBdR14YAckAbnMgP-14" value="rating" style="text;html=1;strokeColor=none;fillColor=none;align=center;verticalAlign=middle;whiteSpace=wrap;rounded=0;fontSize=17;" vertex="1" parent="T0C1m_C553ECl10Zw6SN-82">
          <mxGeometry x="40" y="100" width="40" as="geometry" />
        </mxCell>
        <mxCell id="YSIpcBdR14YAckAbnMgP-13" value="Number (1-5)" style="text;html=1;strokeColor=none;fillColor=none;align=center;verticalAlign=middle;whiteSpace=wrap;rounded=0;fontSize=17;" vertex="1" parent="T0C1m_C553ECl10Zw6SN-82">
          <mxGeometry x="150" y="90" width="40" height="20" as="geometry" />
        </mxCell>
        <mxCell id="YSIpcBdR14YAckAbnMgP-17" value="content" style="text;html=1;strokeColor=none;fillColor=none;align=center;verticalAlign=middle;whiteSpace=wrap;rounded=0;fontSize=17;" vertex="1" parent="T0C1m_C553ECl10Zw6SN-82">
          <mxGeometry x="40" y="130" width="40" height="20" as="geometry" />
        </mxCell>
        <mxCell id="YSIpcBdR14YAckAbnMgP-16" value="String" style="text;html=1;strokeColor=none;fillColor=none;align=center;verticalAlign=middle;whiteSpace=wrap;rounded=0;fontSize=17;" vertex="1" parent="T0C1m_C553ECl10Zw6SN-82">
          <mxGeometry x="150" y="130" width="40" height="20" as="geometry" />
        </mxCell>
        <mxCell id="T0C1m_C553ECl10Zw6SN-83" value="" style="group" parent="1" vertex="1" connectable="0">
          <mxGeometry x="590" y="200" width="230" height="310" as="geometry" />
        </mxCell>
        <mxCell id="T0C1m_C553ECl10Zw6SN-35" value="" style="rounded=1;whiteSpace=wrap;html=1;" parent="T0C1m_C553ECl10Zw6SN-83" vertex="1">
          <mxGeometry width="210" height="310" as="geometry" />
        </mxCell>
        <mxCell id="T0C1m_C553ECl10Zw6SN-37" value="" style="line;strokeWidth=2;direction=south;html=1;" parent="T0C1m_C553ECl10Zw6SN-83" vertex="1">
          <mxGeometry x="100" y="30" width="10" height="280" as="geometry" />
        </mxCell>
        <mxCell id="T0C1m_C553ECl10Zw6SN-45" value="Workouts" style="text;html=1;strokeColor=none;fillColor=none;align=center;verticalAlign=middle;whiteSpace=wrap;rounded=0;fontSize=20;fontStyle=1" parent="T0C1m_C553ECl10Zw6SN-83" vertex="1">
          <mxGeometry x="40" y="10" width="40" height="20" as="geometry" />
        </mxCell>
        <mxCell id="T0C1m_C553ECl10Zw6SN-49" value="_id" style="text;html=1;strokeColor=none;fillColor=none;align=center;verticalAlign=middle;whiteSpace=wrap;rounded=0;fontSize=16;" parent="T0C1m_C553ECl10Zw6SN-83" vertex="1">
          <mxGeometry x="20" y="42.5" width="40" height="20" as="geometry" />
        </mxCell>
        <mxCell id="T0C1m_C553ECl10Zw6SN-50" value="title" style="text;html=1;strokeColor=none;fillColor=none;align=center;verticalAlign=middle;whiteSpace=wrap;rounded=0;fontSize=16;" parent="T0C1m_C553ECl10Zw6SN-83" vertex="1">
          <mxGeometry x="20" y="85" width="40" height="20" as="geometry" />
        </mxCell>
        <mxCell id="T0C1m_C553ECl10Zw6SN-51" value="reviews" style="text;html=1;strokeColor=none;fillColor=none;align=center;verticalAlign=middle;whiteSpace=wrap;rounded=0;fontSize=16;" parent="T0C1m_C553ECl10Zw6SN-83" vertex="1">
          <mxGeometry x="20" y="280" width="40" height="20" as="geometry" />
        </mxCell>
        <mxCell id="T0C1m_C553ECl10Zw6SN-52" value="date" style="text;html=1;strokeColor=none;fillColor=none;align=center;verticalAlign=middle;whiteSpace=wrap;rounded=0;fontSize=16;" parent="T0C1m_C553ECl10Zw6SN-83" vertex="1">
          <mxGeometry x="30" y="250" width="40" height="20" as="geometry" />
        </mxCell>
        <mxCell id="T0C1m_C553ECl10Zw6SN-53" value="ObjectId" style="text;html=1;strokeColor=none;fillColor=none;align=center;verticalAlign=middle;whiteSpace=wrap;rounded=0;fontSize=16;" parent="T0C1m_C553ECl10Zw6SN-83" vertex="1">
          <mxGeometry x="130" y="45" width="40" height="20" as="geometry" />
        </mxCell>
        <mxCell id="T0C1m_C553ECl10Zw6SN-54" value="String" style="text;html=1;strokeColor=none;fillColor=none;align=center;verticalAlign=middle;whiteSpace=wrap;rounded=0;fontSize=16;" parent="T0C1m_C553ECl10Zw6SN-83" vertex="1">
          <mxGeometry x="130" y="85" width="40" height="20" as="geometry" />
        </mxCell>
        <mxCell id="T0C1m_C553ECl10Zw6SN-55" value="&lt;font style=&quot;font-size: 13px;&quot;&gt;[review Schema]&lt;/font&gt;" style="text;html=1;strokeColor=none;fillColor=none;align=center;verticalAlign=middle;whiteSpace=wrap;rounded=0;fontSize=13;" parent="T0C1m_C553ECl10Zw6SN-83" vertex="1">
          <mxGeometry x="80" y="280" width="150" height="20" as="geometry" />
        </mxCell>
        <mxCell id="T0C1m_C553ECl10Zw6SN-56" value="Date" style="text;html=1;strokeColor=none;fillColor=none;align=center;verticalAlign=middle;whiteSpace=wrap;rounded=0;fontSize=16;" parent="T0C1m_C553ECl10Zw6SN-83" vertex="1">
          <mxGeometry x="135" y="250" width="40" height="20" as="geometry" />
        </mxCell>
        <mxCell id="T0C1m_C553ECl10Zw6SN-67" value="" style="line;strokeWidth=2;html=1;fontSize=16;" parent="T0C1m_C553ECl10Zw6SN-83" vertex="1">
          <mxGeometry y="270" width="210" height="10" as="geometry" />
        </mxCell>
        <mxCell id="T0C1m_C553ECl10Zw6SN-68" value="" style="line;strokeWidth=2;html=1;fontSize=16;" parent="T0C1m_C553ECl10Zw6SN-83" vertex="1">
          <mxGeometry y="230" width="210" height="10" as="geometry" />
        </mxCell>
        <mxCell id="T0C1m_C553ECl10Zw6SN-69" value="" style="line;strokeWidth=2;html=1;fontSize=16;" parent="T0C1m_C553ECl10Zw6SN-83" vertex="1">
          <mxGeometry y="187.5" width="210" height="10" as="geometry" />
        </mxCell>
        <mxCell id="T0C1m_C553ECl10Zw6SN-70" value="" style="line;strokeWidth=2;html=1;fontSize=16;" parent="T0C1m_C553ECl10Zw6SN-83" vertex="1">
          <mxGeometry y="150" width="210" height="10" as="geometry" />
        </mxCell>
        <mxCell id="T0C1m_C553ECl10Zw6SN-71" value="" style="line;strokeWidth=2;html=1;fontSize=16;" parent="T0C1m_C553ECl10Zw6SN-83" vertex="1">
          <mxGeometry y="110" width="210" height="10" as="geometry" />
        </mxCell>
        <mxCell id="T0C1m_C553ECl10Zw6SN-72" value="" style="line;strokeWidth=2;html=1;fontSize=16;" parent="T0C1m_C553ECl10Zw6SN-83" vertex="1">
          <mxGeometry y="70" width="210" height="10" as="geometry" />
        </mxCell>
        <mxCell id="T0C1m_C553ECl10Zw6SN-73" value="" style="line;strokeWidth=2;html=1;fontSize=16;" parent="T0C1m_C553ECl10Zw6SN-83" vertex="1">
          <mxGeometry y="30" width="210" height="10" as="geometry" />
        </mxCell>
        <mxCell id="YSIpcBdR14YAckAbnMgP-5" value="Type" style="text;html=1;strokeColor=none;fillColor=none;align=center;verticalAlign=middle;whiteSpace=wrap;rounded=0;fontSize=17;" vertex="1" parent="T0C1m_C553ECl10Zw6SN-83">
          <mxGeometry x="30" y="120" width="40" height="20" as="geometry" />
        </mxCell>
        <mxCell id="YSIpcBdR14YAckAbnMgP-6" value="String" style="text;html=1;strokeColor=none;fillColor=none;align=center;verticalAlign=middle;whiteSpace=wrap;rounded=0;fontSize=17;" vertex="1" parent="T0C1m_C553ECl10Zw6SN-83">
          <mxGeometry x="130" y="120" width="40" height="20" as="geometry" />
        </mxCell>
        <mxCell id="YSIpcBdR14YAckAbnMgP-8" value="Style" style="text;html=1;strokeColor=none;fillColor=none;align=center;verticalAlign=middle;whiteSpace=wrap;rounded=0;fontSize=17;" vertex="1" parent="T0C1m_C553ECl10Zw6SN-83">
          <mxGeometry x="30" y="160" width="40" height="20" as="geometry" />
        </mxCell>
        <mxCell id="YSIpcBdR14YAckAbnMgP-7" value="String" style="text;html=1;strokeColor=none;fillColor=none;align=center;verticalAlign=middle;whiteSpace=wrap;rounded=0;fontSize=17;" vertex="1" parent="T0C1m_C553ECl10Zw6SN-83">
          <mxGeometry x="135" y="160" width="40" height="20" as="geometry" />
        </mxCell>
        <mxCell id="YSIpcBdR14YAckAbnMgP-10" value="duration" style="text;html=1;strokeColor=none;fillColor=none;align=center;verticalAlign=middle;whiteSpace=wrap;rounded=0;fontSize=17;" vertex="1" parent="T0C1m_C553ECl10Zw6SN-83">
          <mxGeometry x="30" y="200" width="40" height="20" as="geometry" />
        </mxCell>
        <mxCell id="YSIpcBdR14YAckAbnMgP-9" value="Time?" style="text;html=1;strokeColor=none;fillColor=none;align=center;verticalAlign=middle;whiteSpace=wrap;rounded=0;fontSize=17;" vertex="1" parent="T0C1m_C553ECl10Zw6SN-83">
          <mxGeometry x="135" y="200" width="40" height="20" as="geometry" />
        </mxCell>
        <mxCell id="T0C1m_C553ECl10Zw6SN-105" value="" style="group" parent="1" vertex="1" connectable="0">
          <mxGeometry x="540" y="650" width="210" height="310" as="geometry" />
        </mxCell>
        <mxCell id="T0C1m_C553ECl10Zw6SN-85" value="" style="rounded=1;whiteSpace=wrap;html=1;" parent="T0C1m_C553ECl10Zw6SN-105" vertex="1">
          <mxGeometry width="210" height="310" as="geometry" />
        </mxCell>
        <mxCell id="T0C1m_C553ECl10Zw6SN-86" value="" style="line;strokeWidth=2;direction=south;html=1;" parent="T0C1m_C553ECl10Zw6SN-105" vertex="1">
          <mxGeometry x="100" y="30" width="10" height="280" as="geometry" />
        </mxCell>
        <mxCell id="T0C1m_C553ECl10Zw6SN-87" value="Exercises" style="text;html=1;strokeColor=none;fillColor=none;align=center;verticalAlign=middle;whiteSpace=wrap;rounded=0;fontSize=20;fontStyle=1" parent="T0C1m_C553ECl10Zw6SN-105" vertex="1">
          <mxGeometry x="40" y="10" width="40" height="20" as="geometry" />
        </mxCell>
        <mxCell id="T0C1m_C553ECl10Zw6SN-88" value="_id" style="text;html=1;strokeColor=none;fillColor=none;align=center;verticalAlign=middle;whiteSpace=wrap;rounded=0;fontSize=16;" parent="T0C1m_C553ECl10Zw6SN-105" vertex="1">
          <mxGeometry x="20" y="42.5" width="40" height="19" as="geometry" />
        </mxCell>
        <mxCell id="T0C1m_C553ECl10Zw6SN-89" value="image" style="text;html=1;strokeColor=none;fillColor=none;align=center;verticalAlign=middle;whiteSpace=wrap;rounded=0;fontSize=16;" parent="T0C1m_C553ECl10Zw6SN-105" vertex="1">
          <mxGeometry x="30" y="85" width="40" height="19" as="geometry" />
        </mxCell>
        <mxCell id="T0C1m_C553ECl10Zw6SN-90" value="bodyZone" style="text;html=1;strokeColor=none;fillColor=none;align=center;verticalAlign=middle;whiteSpace=wrap;rounded=0;fontSize=16;" parent="T0C1m_C553ECl10Zw6SN-105" vertex="1">
          <mxGeometry x="30" y="127.5" width="40" height="19" as="geometry" />
        </mxCell>
        <mxCell id="T0C1m_C553ECl10Zw6SN-91" value="name" style="text;html=1;strokeColor=none;fillColor=none;align=center;verticalAlign=middle;whiteSpace=wrap;rounded=0;fontSize=16;" parent="T0C1m_C553ECl10Zw6SN-105" vertex="1">
          <mxGeometry x="30" y="168.5" width="40" height="19" as="geometry" />
        </mxCell>
        <mxCell id="T0C1m_C553ECl10Zw6SN-92" value="Number" style="text;html=1;strokeColor=none;fillColor=none;align=center;verticalAlign=middle;whiteSpace=wrap;rounded=0;fontSize=16;" parent="T0C1m_C553ECl10Zw6SN-105" vertex="1">
          <mxGeometry x="130" y="45" width="40" height="19" as="geometry" />
        </mxCell>
        <mxCell id="T0C1m_C553ECl10Zw6SN-93" value="String" style="text;html=1;strokeColor=none;fillColor=none;align=center;verticalAlign=middle;whiteSpace=wrap;rounded=0;fontSize=16;" parent="T0C1m_C553ECl10Zw6SN-105" vertex="1">
          <mxGeometry x="130" y="85" width="40" height="19" as="geometry" />
        </mxCell>
        <mxCell id="T0C1m_C553ECl10Zw6SN-94" value="&lt;font style=&quot;font-size: 16px;&quot;&gt;String&lt;/font&gt;" style="text;html=1;strokeColor=none;fillColor=none;align=center;verticalAlign=middle;whiteSpace=wrap;rounded=0;fontSize=16;" parent="T0C1m_C553ECl10Zw6SN-105" vertex="1">
          <mxGeometry x="125" y="127.5" width="60" height="19" as="geometry" />
        </mxCell>
        <mxCell id="T0C1m_C553ECl10Zw6SN-95" value="String" style="text;html=1;strokeColor=none;fillColor=none;align=center;verticalAlign=middle;whiteSpace=wrap;rounded=0;fontSize=16;" parent="T0C1m_C553ECl10Zw6SN-105" vertex="1">
          <mxGeometry x="135" y="167.5" width="40" height="19" as="geometry" />
        </mxCell>
        <mxCell id="T0C1m_C553ECl10Zw6SN-96" value="" style="line;strokeWidth=2;html=1;fontSize=16;" parent="T0C1m_C553ECl10Zw6SN-105" vertex="1">
          <mxGeometry y="270" width="210" height="10" as="geometry" />
        </mxCell>
        <mxCell id="T0C1m_C553ECl10Zw6SN-97" value="" style="line;strokeWidth=2;html=1;fontSize=16;" parent="T0C1m_C553ECl10Zw6SN-105" vertex="1">
          <mxGeometry y="230" width="210" height="10" as="geometry" />
        </mxCell>
        <mxCell id="T0C1m_C553ECl10Zw6SN-98" value="" style="line;strokeWidth=2;html=1;fontSize=16;" parent="T0C1m_C553ECl10Zw6SN-105" vertex="1">
          <mxGeometry y="187.5" width="210" height="10" as="geometry" />
        </mxCell>
        <mxCell id="T0C1m_C553ECl10Zw6SN-99" value="" style="line;strokeWidth=2;html=1;fontSize=16;" parent="T0C1m_C553ECl10Zw6SN-105" vertex="1">
          <mxGeometry y="150" width="210" height="10" as="geometry" />
        </mxCell>
        <mxCell id="T0C1m_C553ECl10Zw6SN-100" value="" style="line;strokeWidth=2;html=1;fontSize=16;" parent="T0C1m_C553ECl10Zw6SN-105" vertex="1">
          <mxGeometry y="110" width="210" height="10" as="geometry" />
        </mxCell>
        <mxCell id="T0C1m_C553ECl10Zw6SN-101" value="" style="line;strokeWidth=2;html=1;fontSize=16;" parent="T0C1m_C553ECl10Zw6SN-105" vertex="1">
          <mxGeometry y="70" width="210" height="10" as="geometry" />
        </mxCell>
        <mxCell id="T0C1m_C553ECl10Zw6SN-102" value="" style="line;strokeWidth=2;html=1;fontSize=16;" parent="T0C1m_C553ECl10Zw6SN-105" vertex="1">
          <mxGeometry y="30" width="210" height="10" as="geometry" />
        </mxCell>
        <mxCell id="YSIpcBdR14YAckAbnMgP-18" value="desrciption" style="text;html=1;strokeColor=none;fillColor=none;align=center;verticalAlign=middle;whiteSpace=wrap;rounded=0;fontSize=16;" vertex="1" parent="T0C1m_C553ECl10Zw6SN-105">
          <mxGeometry x="30" y="211" width="40" height="19" as="geometry" />
        </mxCell>
        <mxCell id="YSIpcBdR14YAckAbnMgP-19" value="String" style="text;html=1;strokeColor=none;fillColor=none;align=center;verticalAlign=middle;whiteSpace=wrap;rounded=0;fontSize=16;" vertex="1" parent="T0C1m_C553ECl10Zw6SN-105">
          <mxGeometry x="135" y="210" width="40" height="19" as="geometry" />
        </mxCell>
        <mxCell id="T0C1m_C553ECl10Zw6SN-118" value="" style="group" parent="1" vertex="1" connectable="0">
          <mxGeometry x="160" y="790" width="230" height="160" as="geometry" />
        </mxCell>
        <mxCell id="T0C1m_C553ECl10Zw6SN-107" value="" style="rounded=1;whiteSpace=wrap;html=1;" parent="T0C1m_C553ECl10Zw6SN-118" vertex="1">
          <mxGeometry width="230" height="160" as="geometry" />
        </mxCell>
        <mxCell id="T0C1m_C553ECl10Zw6SN-108" value="" style="line;strokeWidth=4;direction=south;html=1;perimeter=backbonePerimeter;points=[];outlineConnect=0;fontSize=16;" parent="T0C1m_C553ECl10Zw6SN-118" vertex="1">
          <mxGeometry x="110" y="40" width="10" height="120" as="geometry" />
        </mxCell>
        <mxCell id="T0C1m_C553ECl10Zw6SN-109" value="Goals" style="text;html=1;strokeColor=none;fillColor=none;align=center;verticalAlign=middle;whiteSpace=wrap;rounded=0;fontSize=20;fontStyle=1" parent="T0C1m_C553ECl10Zw6SN-118" vertex="1">
          <mxGeometry x="20" y="10" width="70" height="20" as="geometry" />
        </mxCell>
        <mxCell id="T0C1m_C553ECl10Zw6SN-110" value="" style="line;strokeWidth=2;html=1;fontSize=16;" parent="T0C1m_C553ECl10Zw6SN-118" vertex="1">
          <mxGeometry y="80" width="230" height="10" as="geometry" />
        </mxCell>
        <mxCell id="T0C1m_C553ECl10Zw6SN-111" value="" style="line;strokeWidth=2;html=1;fontSize=16;" parent="T0C1m_C553ECl10Zw6SN-118" vertex="1">
          <mxGeometry y="120" width="230" height="10" as="geometry" />
        </mxCell>
        <mxCell id="T0C1m_C553ECl10Zw6SN-112" value="" style="line;strokeWidth=2;html=1;fontSize=16;" parent="T0C1m_C553ECl10Zw6SN-118" vertex="1">
          <mxGeometry y="40" width="230" height="10" as="geometry" />
        </mxCell>
        <mxCell id="T0C1m_C553ECl10Zw6SN-113" value="_id" style="text;html=1;strokeColor=none;fillColor=none;align=center;verticalAlign=middle;whiteSpace=wrap;rounded=0;fontSize=18;" parent="T0C1m_C553ECl10Zw6SN-118" vertex="1">
          <mxGeometry x="40" y="54.25" width="40" height="19" as="geometry" />
        </mxCell>
        <mxCell id="T0C1m_C553ECl10Zw6SN-114" value="content" style="text;html=1;strokeColor=none;fillColor=none;align=center;verticalAlign=middle;whiteSpace=wrap;rounded=0;fontSize=18;" parent="T0C1m_C553ECl10Zw6SN-118" vertex="1">
          <mxGeometry x="35" y="130" width="40" height="19" as="geometry" />
        </mxCell>
        <mxCell id="T0C1m_C553ECl10Zw6SN-115" value="ObjectId" style="text;html=1;strokeColor=none;fillColor=none;align=center;verticalAlign=middle;whiteSpace=wrap;rounded=0;fontSize=18;" parent="T0C1m_C553ECl10Zw6SN-118" vertex="1">
          <mxGeometry x="150" y="56.75" width="40" height="19" as="geometry" />
        </mxCell>
        <mxCell id="T0C1m_C553ECl10Zw6SN-116" value="String" style="text;html=1;strokeColor=none;fillColor=none;align=center;verticalAlign=middle;whiteSpace=wrap;rounded=0;fontSize=18;" parent="T0C1m_C553ECl10Zw6SN-118" vertex="1">
          <mxGeometry x="150" y="130" width="40" height="19" as="geometry" />
        </mxCell>
        <mxCell id="YSIpcBdR14YAckAbnMgP-1" value="Due Date" style="text;html=1;strokeColor=none;fillColor=none;align=center;verticalAlign=middle;whiteSpace=wrap;rounded=0;fontSize=17;" vertex="1" parent="T0C1m_C553ECl10Zw6SN-118">
          <mxGeometry x="10" y="90" width="90" height="20" as="geometry" />
        </mxCell>
        <mxCell id="YSIpcBdR14YAckAbnMgP-2" value="Date" style="text;html=1;strokeColor=none;fillColor=none;align=center;verticalAlign=middle;whiteSpace=wrap;rounded=0;fontSize=17;" vertex="1" parent="T0C1m_C553ECl10Zw6SN-118">
          <mxGeometry x="150" y="90" width="40" height="20" as="geometry" />
        </mxCell>
        <mxCell id="T0C1m_C553ECl10Zw6SN-122" value="" style="edgeStyle=entityRelationEdgeStyle;fontSize=12;html=1;endArrow=ERmany;startArrow=ERmany;entryX=-0.005;entryY=0.439;entryDx=0;entryDy=0;entryPerimeter=0;" parent="1" edge="1" target="T0C1m_C553ECl10Zw6SN-35">
          <mxGeometry width="100" height="100" relative="1" as="geometry">
            <mxPoint x="294" y="502" as="sourcePoint" />
            <mxPoint x="580" y="335" as="targetPoint" />
          </mxGeometry>
        </mxCell>
        <mxCell id="T0C1m_C553ECl10Zw6SN-123" value="" style="edgeStyle=entityRelationEdgeStyle;fontSize=12;html=1;endArrow=ERmany;startArrow=ERmany;entryX=-0.005;entryY=0.81;entryDx=0;entryDy=0;entryPerimeter=0;exitX=1;exitY=0.171;exitDx=0;exitDy=0;exitPerimeter=0;" parent="1" edge="1" target="T0C1m_C553ECl10Zw6SN-35" source="T0C1m_C553ECl10Zw6SN-85">
          <mxGeometry width="100" height="100" relative="1" as="geometry">
            <mxPoint x="760" y="700" as="sourcePoint" />
            <mxPoint x="580" y="450" as="targetPoint" />
          </mxGeometry>
        </mxCell>
        <mxCell id="T0C1m_C553ECl10Zw6SN-125" value="" style="edgeStyle=entityRelationEdgeStyle;fontSize=12;html=1;endArrow=ERoneToMany;exitX=1.014;exitY=0.938;exitDx=0;exitDy=0;exitPerimeter=0;" parent="1" edge="1" source="T0C1m_C553ECl10Zw6SN-2">
          <mxGeometry width="100" height="100" relative="1" as="geometry">
            <mxPoint x="300" y="580" as="sourcePoint" />
            <mxPoint x="160" y="850" as="targetPoint" />
          </mxGeometry>
        </mxCell>
        <mxCell id="YSIpcBdR14YAckAbnMgP-3" value="Reference" style="text;html=1;strokeColor=none;fillColor=none;align=center;verticalAlign=middle;whiteSpace=wrap;rounded=0;fontSize=17;" vertex="1" parent="1">
          <mxGeometry x="610" y="550" width="110" height="20" as="geometry" />
        </mxCell>
        <mxCell id="YSIpcBdR14YAckAbnMgP-11" value="" style="edgeStyle=entityRelationEdgeStyle;fontSize=12;html=1;endArrow=ERmany;exitX=0.574;exitY=1.019;exitDx=0;exitDy=0;exitPerimeter=0;" edge="1" parent="1" source="T0C1m_C553ECl10Zw6SN-34">
          <mxGeometry width="100" height="100" relative="1" as="geometry">
            <mxPoint x="490" y="350" as="sourcePoint" />
            <mxPoint x="590" y="250" as="targetPoint" />
          </mxGeometry>
        </mxCell>
      </root>
    </mxGraphModel>
  </diagram>
</mxfile>
